<?xml version="1.0" standalone="no"?>
<!DOCTYPE svg PUBLIC "-//W3C//DTD SVG 1.1//EN"
"http://www.w3.org/Graphics/SVG/1.1/DTD/svg11.dtd">

<svg width="309" height="254" view_box="0 0 309 254"
xmlns="http://www.w3.org/2000/svg"
xmlns:link="http://www.w3.org/1999/xlink">\n\n<desc>Généré par Mocodo 2.3.7 le Tue, 26 Jan 2021 02:02:31</desc>

<rect id="frame" x="0" y="0" width="309" height="254" fill="#f7f7f7" stroke="none" stroke-width="0"/>

<!-- Association APPARTIENT -->
<line x1="48" y1="211" x2="165" y2="211" stroke="#7fbc41" stroke-width="2"/>
<text x="92" y="228.0" fill="#c51b7d" font-family="Verdana" font-size="12">1,1</text>
<line x1="266" y1="211" x2="165" y2="211" stroke="#7fbc41" stroke-width="2"/>
<text x="216" y="228.0" fill="#c51b7d" font-family="Verdana" font-size="12">0,N</text>
<g id="association-APPARTIENT">
	<path d="M 197 186 a 14 14 90 0 1 14 14 V 211 h -92 V 200 a 14 14 90 0 1 14 -14" fill="#b8e186" stroke="#b8e186" stroke-width="0"/>
	<path d="M 211 211.0 v 11 a 14 14 90 0 1 -14 14 H 133 a 14 14 90 0 1 -14 -14 V 211.0 H 92" fill="#e6f5d0" stroke="#e6f5d0" stroke-width="0"/>
	<rect x="119" y="186" width="92" height="50" fill="none" rx="14" stroke="#7fbc41" stroke-width="2"/>
	<line x1="119" y1="211" x2="211" y2="211" stroke="#7fbc41" stroke-width="1"/>
	<text x="126" y="203.7" fill="#000000" font-family="Verdana" font-size="12">APPARTIENT</text>
</g>

<!-- Association AVOIR -->
<line x1="48" y1="43" x2="48" y2="127" stroke="#7fbc41" stroke-width="2"/>
<text x="53.0" y="85" fill="#c51b7d" font-family="Verdana" font-size="12">0,N</text>
<line x1="48" y1="211" x2="48" y2="127" stroke="#7fbc41" stroke-width="2"/>
<text x="53.0" y="169" fill="#c51b7d" font-family="Verdana" font-size="12">0,1</text>
<g id="association-AVOIR">
	<path d="M 61 102 a 14 14 90 0 1 14 14 V 127 h -54 V 116 a 14 14 90 0 1 14 -14" fill="#b8e186" stroke="#b8e186" stroke-width="0"/>
	<path d="M 75 127.0 v 11 a 14 14 90 0 1 -14 14 H 35 a 14 14 90 0 1 -14 -14 V 127.0 H 54" fill="#e6f5d0" stroke="#e6f5d0" stroke-width="0"/>
	<rect x="21" y="102" width="54" height="50" fill="none" rx="14" stroke="#7fbc41" stroke-width="2"/>
	<line x1="21" y1="127" x2="75" y2="127" stroke="#7fbc41" stroke-width="1"/>
	<text x="28" y="119.7" fill="#000000" font-family="Verdana" font-size="12">AVOIR</text>
</g>

<!-- Association CREE -->
<line x1="266" y1="211" x2="266" y2="127" stroke="#7fbc41" stroke-width="2"/>
<text x="271.0" y="169" fill="#c51b7d" font-family="Verdana" font-size="12">0,1</text>
<line x1="266" y1="43" x2="266" y2="127" stroke="#7fbc41" stroke-width="2"/>
<text x="271.0" y="94" fill="#c51b7d" font-family="Verdana" font-size="12">0,N</text>
<g id="association-CREE">
	<path d="M 276 102 a 14 14 90 0 1 14 14 V 127 h -48 V 116 a 14 14 90 0 1 14 -14" fill="#b8e186" stroke="#b8e186" stroke-width="0"/>
	<path d="M 290 127.0 v 11 a 14 14 90 0 1 -14 14 H 256 a 14 14 90 0 1 -14 -14 V 127.0 H 48" fill="#e6f5d0" stroke="#e6f5d0" stroke-width="0"/>
	<rect x="242" y="102" width="48" height="50" fill="none" rx="14" stroke="#7fbc41" stroke-width="2"/>
	<line x1="242" y1="127" x2="290" y2="127" stroke="#7fbc41" stroke-width="1"/>
	<text x="249" y="119.7" fill="#000000" font-family="Verdana" font-size="12">CREE</text>
</g>

<!-- Entity LISTE -->
<g id="entity-LISTE">
	<g id="frame-LISTE">
		<rect x="243" y="177" width="46" height="25" fill="#f1b6da" stroke="#f1b6da" stroke-width="0"/>
		<rect x="243" y="202.0" width="46" height="43" fill="#fde0ef" stroke="#fde0ef" stroke-width="0"/>
		<rect x="243" y="177" width="46" height="68" fill="none" stroke="#de77ae" stroke-width="2"/>
		<line x1="243" y1="202" x2="289" y2="202" stroke="#de77ae" stroke-width="1"/>
	</g>
	<text x="248" y="194.7" fill="#000000" font-family="Verdana" font-size="12">LISTE</text>
	<text x="248" y="219.8" fill="#000000" font-family="Verdana" font-size="12">nom</text>
	<line x1="248" y1="222" x2="276" y2="222" stroke="#000000" stroke-width="1"/>
	<text x="248" y="236.8" fill="#000000" font-family="Verdana" font-size="12">ordre</text>
</g>

<!-- Entity TAG -->
<g id="entity-TAG">
	<g id="frame-TAG">
		<rect x="29" y="18" width="38" height="25" fill="#f1b6da" stroke="#f1b6da" stroke-width="0"/>
		<rect x="29" y="43.0" width="38" height="25" fill="#fde0ef" stroke="#fde0ef" stroke-width="0"/>
		<rect x="29" y="18" width="38" height="50" fill="none" stroke="#de77ae" stroke-width="2"/>
		<line x1="29" y1="43" x2="67" y2="43" stroke="#de77ae" stroke-width="1"/>
	</g>
	<text x="35" y="35.7" fill="#000000" font-family="Verdana" font-size="12">TAG</text>
	<text x="34" y="60.8" fill="#000000" font-family="Verdana" font-size="12">nom</text>
	<line x1="34" y1="63" x2="62" y2="63" stroke="#000000" stroke-width="1"/>
</g>

<!-- Entity USER -->
<g id="entity-USER">
	<g id="frame-USER">
		<rect x="232" y="9" width="68" height="25" fill="#f1b6da" stroke="#f1b6da" stroke-width="0"/>
		<rect x="232" y="34.0" width="68" height="43" fill="#fde0ef" stroke="#fde0ef" stroke-width="0"/>
		<rect x="232" y="9" width="68" height="68" fill="none" stroke="#de77ae" stroke-width="2"/>
		<line x1="232" y1="34" x2="300" y2="34" stroke="#de77ae" stroke-width="1"/>
	</g>
	<text x="249" y="26.7" fill="#000000" font-family="Verdana" font-size="12">USER</text>
	<text x="237" y="51.8" fill="#000000" font-family="Verdana" font-size="12">email</text>
	<line x1="237" y1="54" x2="271" y2="54" stroke="#000000" stroke-width="1"/>
	<text x="237" y="68.8" fill="#000000" font-family="Verdana" font-size="12">password</text>
</g>

<!-- Entity CARD -->
<g id="entity-CARD">
	<g id="frame-CARD">
		<rect x="9" y="177" width="78" height="25" fill="#f1b6da" stroke="#f1b6da" stroke-width="0"/>
		<rect x="9" y="202.0" width="78" height="43" fill="#fde0ef" stroke="#fde0ef" stroke-width="0"/>
		<rect x="9" y="177" width="78" height="68" fill="none" stroke="#de77ae" stroke-width="2"/>
		<line x1="9" y1="202" x2="87" y2="202" stroke="#de77ae" stroke-width="1"/>
	</g>
	<text x="30" y="194.7" fill="#000000" font-family="Verdana" font-size="12">CARD</text>
	<text x="14" y="219.8" fill="#000000" font-family="Verdana" font-size="12">description</text>
	<text x="14" y="236.8" fill="#000000" font-family="Verdana" font-size="12">ordre</text>
</g>
</svg>